<svg xmlns="http://www.w3.org/2000/svg" version="1.1" xmlns:xlink="http://www.w3.org/1999/xlink" xmlns:svgjs="http://svgjs.dev/svgjs" width="100%" height="100%" viewBox="0 0 1000 600"><rect width="1000" height="600" x="0" y="0" fill="#f4efea"/><g><rect width="333.3333333333333" height="333.3333333333333" rx="13.333333333333334" ry="13.333333333333334" y="237.16232022375888" fill="#7d141d" transform="matrix(0.5815573976481782,0,0,0.5815573976481782,0,65.15027618287854)" x="214.94003295898438"/><path d="M331.6354413889501 349.7197709626887L331.6354413889501 328.8289666703212L431.5779686638524 328.8289666703212L431.5779686638524 349.7197709626887L391.8365899343556 349.7197709626887L391.8365899343556 478.8289644779665L370.11245232083456 478.8289644779665L370.11245232083456 349.7197709626887L331.6354413889501 349.7197709626887Z " fill="#f4efea" transform="matrix(0.5815573976481782,0,0,0.5815573976481782,0,65.15027618287854)"/><path d="M631.6067050231402 476.3977575139103L631.6067050231402 328.82898189357627L719.9218113522443 328.82898189357627L719.9218113522443 349.38118493495233L652.752575552644 349.38118493495233L652.752575552644 394.1606754680192L711.3843074753592 394.1606754680192L711.3843074753592 414.5149893466859L652.752575552644 414.5149893466859L652.752575552644 476.3977575139103L631.6067050231402 476.3977575139103ZM772.0514707859409 478.43318890177693L772.0514707859409 478.43318890177693Q760.03677162145 478.43318890177693 750.2553930075352 473.34461043211024Q740.5022842740074 468.25603196244356 734.7917684358259 458.38984370736756Q729.0812525976444 448.5236554522916 729.0812525976444 433.85158753141934L729.0812525976444 433.85158753141934Q729.0812525976444 419.6035678163526 735.1027371200834 409.34160123585815Q741.0959517621352 399.0513647749766 750.9621400172111 393.4539284583432Q760.8565981526741 387.85649214170985 772.4472491113594 387.85649214170985L772.4472491113594 387.85649214170985Q784.6598374385595 387.85649214170985 792.6036738273169 392.9450706113766Q800.5475102160743 398.0336490810433 804.816262154517 405.1576589385766L804.816262154517 405.1576589385766L803.6006572978744 408.4086951830859L805.636088685741 391.3054175489284L824.5486386646688 391.3054175489284L824.5486386646688 476.3977575139103L803.9964356232929 476.3977575139103L803.9964356232929 454.8278387786009L806.0318670111595 459.9164172482676Q805.2120404799355 461.5278004303287 802.5829416039411 464.5809475121287Q799.9255728475595 467.63409459392875 795.6568209091168 470.8003211972769Q791.3880689706742 473.96654780062505 785.3665844482354 476.199868351201Q779.3733698061835 478.43318890177693 772.0514707859409 478.43318890177693ZM777.5358275810261 461.5278004303287L777.5358275810261 461.5278004303287Q787.7129845203594 461.5278004303287 794.7239148563447 456.1565231567917Q801.7631150727169 450.7569760028676 803.9964356232929 441.3996455947583L803.9964356232929 441.3996455947583L803.9964356232929 423.8723197547952Q801.5652259100077 415.53270504061925 794.1302473682168 410.04834824553404Q786.6952688264262 404.5357215700618 776.9138902125113 404.5357215700618L776.9138902125113 404.5357215700618Q769.5919911922687 404.5357215700618 763.4856970286686 408.0977264988285Q757.3794028650685 411.65973142759515 753.7325882951408 418.0769942754526Q750.057503844826 424.49425712331004 750.057503844826 432.833871837486L750.057503844826 432.833871837486Q750.057503844826 440.97559738895274 753.8173979363019 447.5059397583583Q757.5772920277778 454.0080122473768 763.9097452344741 457.76790633885275Q770.2139285607835 461.5278004303287 777.5358275810261 461.5278004303287ZM893.1596383640081 478.82896722719545L892.1419226700747 478.82896722719545L844.3092850552079 391.3054175489284L868.5083026665117 391.3054175489284L900.057489178445 457.4569376545954L887.4491225258266 456.8632701664676L916.1430511186693 391.3054175489284L938.9568445910082 391.3054175489284L893.1596383640081 478.82896722719545ZM958.4913319384509 476.3977575139103L958.4913319384509 391.3054175489284L979.043534979827 391.3054175489284L979.043534979827 476.3977575139103L958.4913319384509 476.3977575139103ZM957.4736162445176 360.7739467309283L957.4736162445176 360.7739467309283Q957.4736162445176 356.10941646706715 961.2335103359935 352.85838022255786Q964.9934044274695 349.57907409766153 969.4883154090084 349.57907409766153L969.4883154090084 349.57907409766153Q973.9549565101603 349.57907409766153 977.6300409604751 352.85838022255786Q981.2768555304029 356.10941646706715 981.2768555304029 360.7739467309283L981.2768555304029 360.7739467309283Q981.2768555304029 365.862525200595 977.6300409604751 368.91567228239495Q973.9549565101603 371.968819364195 969.4883154090084 371.968819364195L969.4883154090084 371.968819364195Q964.9934044274695 371.968819364195 961.2335103359935 368.91567228239495Q957.4736162445176 365.862525200595 957.4736162445176 360.7739467309283ZM1070.4400582711182 455.64766530982496L1080.8151043731607 468.4539211251528Q1075.1045885349795 473.146721269401 1067.0759425050605 475.77582014539547Q1059.047296475142 478.43318890177693 1050.9055709236754 478.43318890177693L1050.9055709236754 478.43318890177693Q1037.0533295340274 478.43318890177693 1026.367314747727 472.9488321066917Q1015.6812999614272 467.4362054312195 1009.7728949605363 457.4569376545954Q1003.8644899596455 447.5059397583583 1003.8644899596455 433.85158753141934L1003.8644899596455 433.85158753141934Q1003.8644899596455 420.02761602215816 1010.196943166342 410.04834824553404Q1016.5011264926512 400.06908046890993 1026.7630930731457 394.6695333149858Q1037.0533295340274 389.26998616106175 1048.870139535809 389.26998616106175L1048.870139535809 389.26998616106175Q1059.4430748005607 389.26998616106175 1067.4717208304792 392.12524408015247Q1075.5286367407848 394.98050199924324 1081.4370417416756 400.06908046890993L1081.4370417416756 400.06908046890993L1071.2598848023422 413.29938449004334Q1067.7826895147368 410.44412657095256 1062.4962218823607 408.21080602037665Q1057.2097542499846 405.9774854698007 1050.6794118805792 405.9774854698007L1050.6794118805792 405.9774854698007Q1043.3575128603366 405.9774854698007 1037.3642982182846 409.6243000397285Q1031.3428136958457 413.29938449004334 1027.8938882886273 419.6035678163526Q1024.4449628814086 425.9077511426619 1024.4449628814086 433.85158753141934L1024.4449628814086 433.85158753141934Q1024.4449628814086 441.5975347574675 1028.0069678101754 447.9017180837768Q1031.5689727389422 454.2059014100861 1037.9579657064123 457.8809858604009Q1044.37522855427 461.5278004303287 1052.5169541057367 461.5278004303287L1052.5169541057367 461.5278004303287Q1057.8034217381123 461.5278004303287 1062.3831423608126 459.9164172482676Q1066.9628629835124 458.27676418581945 1070.4400582711182 455.64766530982496L1070.4400582711182 455.64766530982496ZM1097.4943338015128 433.0317610001952L1097.4943338015128 433.0317610001952Q1097.4943338015128 420.2255051848674 1103.6006279651128 409.93526872398587Q1109.706922128713 399.6733021434914 1120.506016436561 393.76489714260066Q1131.3051107444091 387.85649214170985 1145.1290822536703 387.85649214170985L1145.1290822536703 387.85649214170985Q1159.1792128060279 387.85649214170985 1169.6673384296187 393.76489714260066Q1180.1554640532095 399.6733021434914 1185.9507895325519 409.93526872398587Q1191.7461150118947 420.2255051848674 1191.7461150118947 433.0317610001952L1191.7461150118947 433.0317610001952Q1191.7461150118947 445.8662866959101 1185.8377100110038 456.1565231567917Q1179.929305010113 466.41848973728617 1169.4694492669094 472.43997425972503Q1158.9813236433185 478.43318890177693 1144.7333039282519 478.43318890177693L1144.7333039282519 478.43318890177693Q1131.3051107444091 478.43318890177693 1120.619095958109 472.9488321066917Q1109.9330811718091 467.4362054312195 1103.713707486661 457.174238850725Q1097.4943338015128 446.8840023898435 1097.4943338015128 433.0317610001952ZM1118.2726958859848 433.25792004329156L1118.2726958859848 433.25792004329156Q1118.2726958859848 441.17348655166194 1121.7216212932035 447.5907493995194Q1125.1988165808093 454.0080122473768 1131.1920312228608 457.76790633885275Q1137.1852458649128 461.5278004303287 1144.5354147655426 461.5278004303287L1144.5354147655426 461.5278004303287Q1156.1260657242278 461.5278004303287 1163.5610442660186 453.386074878862Q1170.9960228078094 445.24434932739535 1170.9960228078094 433.25792004329156L1170.9960228078094 433.25792004329156Q1170.9960228078094 421.24322087880074 1163.5610442660186 412.9884158057859Q1156.1260657242278 404.7618806131581 1144.5354147655426 404.7618806131581L1144.5354147655426 404.7618806131581Q1136.9873567022037 404.7618806131581 1131.0789517013127 408.60658434579517Q1125.1988165808093 412.47955795881927 1121.7216212932035 419.00990032822483Q1118.2726958859848 425.51197281724336 1118.2726958859848 433.25792004329156ZM1216.5670699917132 391.3054175489284L1235.1121115256096 391.3054175489284L1236.92138387038 411.06606393946737L1236.129827219543 408.21080602037665Q1240.2006899952762 399.0513647749766 1249.2470517191282 393.5670079798914Q1258.2934134429802 388.0543813044191 1270.5060017701799 388.0543813044191L1270.5060017701799 388.0543813044191Q1282.520700934671 388.0543813044191 1290.266648160719 395.09358152079136Q1297.9843255063802 402.1045118567766 1298.2104845494764 413.4972736527526L1298.2104845494764 413.4972736527526L1298.2104845494764 476.3977575139103L1277.6300116277134 476.3977575139103L1277.6300116277134 420.62128351028593Q1277.4321224650043 414.1192110212674 1273.7853078950766 409.93526872398587Q1270.1102234447617 405.7795963070914 1262.3642762187133 405.55343726399514L1262.3642762187133 405.55343726399514Q1251.5934517912524 405.55343726399514 1244.3563624121707 414.5149893466859Q1237.1475429134762 423.4765414293767 1237.1475429134762 437.5266719817342L1237.1475429134762 437.5266719817342L1237.1475429134762 476.3977575139103L1216.5670699917132 476.3977575139103L1216.5670699917132 391.3054175489284ZM1320.7981189787192 465.00499571793426L1320.7981189787192 465.00499571793426Q1320.7981189787192 460.1143064109769 1324.360123907486 456.7501906449194Q1327.9221288362523 453.386074878862 1332.1908807746954 453.386074878862L1332.1908807746954 453.386074878862Q1336.2617435504285 453.386074878862 1339.7106689576472 456.7501906449194Q1343.1878642452525 460.1143064109769 1343.1878642452525 465.00499571793426L1343.1878642452525 465.00499571793426Q1343.1878642452525 470.093574187601 1339.7106689576472 473.23153091056207Q1336.2617435504285 476.3977575139103 1332.1908807746954 476.3977575139103L1332.1908807746954 476.3977575139103Q1327.9221288362523 476.3977575139103 1324.360123907486 473.23153091056207Q1320.7981189787192 470.093574187601 1320.7981189787192 465.00499571793426L1320.7981189787192 465.00499571793426ZM1364.9556721432714 476.3977575139103L1364.9556721432714 391.3054175489284L1385.5078751846472 391.3054175489284L1385.5078751846472 476.3977575139103L1364.9556721432714 476.3977575139103ZM1363.937956449338 360.7739467309283L1363.937956449338 360.7739467309283Q1363.937956449338 356.10941646706715 1367.6978505408138 352.85838022255786Q1371.4860145126768 349.57907409766153 1375.952655613829 349.57907409766153L1375.952655613829 349.57907409766153Q1380.4192967149806 349.57907409766153 1384.0943811652955 352.85838022255786Q1387.76946561561 356.10941646706715 1387.76946561561 360.7739467309283L1387.76946561561 360.7739467309283Q1387.76946561561 365.862525200595 1384.0943811652955 368.91567228239495Q1380.4192967149806 371.968819364195 1375.952655613829 371.968819364195L1375.952655613829 371.968819364195Q1371.4860145126768 371.968819364195 1367.6978505408138 368.91567228239495Q1363.937956449338 365.862525200595 1363.937956449338 360.7739467309283ZM1410.3571000448528 433.0317610001952L1410.3571000448528 433.0317610001952Q1410.3571000448528 420.2255051848674 1416.4633942084529 409.93526872398587Q1422.569688372053 399.6733021434914 1433.3405127995143 393.76489714260066Q1444.1396071073623 387.85649214170985 1457.9918484970108 387.85649214170985L1457.9918484970108 387.85649214170985Q1472.0137091689808 387.85649214170985 1482.501834792572 393.76489714260066Q1492.9899604161628 399.6733021434914 1498.7852858955052 409.93526872398587Q1504.5806113748476 420.2255051848674 1504.5806113748476 433.0317610001952L1504.5806113748476 433.0317610001952Q1504.5806113748476 445.8662866959101 1498.7004762543438 456.1565231567917Q1492.7920712534533 466.41848973728617 1482.3039456298625 472.43997425972503Q1471.8158200062717 478.43318890177693 1457.567800291205 478.43318890177693L1457.567800291205 478.43318890177693Q1444.1396071073623 478.43318890177693 1433.4535923210624 472.9488321066917Q1422.767577534762 467.4362054312195 1416.5482038496139 457.174238850725Q1410.3571000448528 446.8840023898435 1410.3571000448528 433.0317610001952ZM1431.1071922489382 433.25792004329156L1431.1071922489382 433.25792004329156Q1431.1071922489382 441.17348655166194 1434.5843875365435 447.5907493995194Q1438.0333129437622 454.0080122473768 1444.0265275858142 457.76790633885275Q1450.0480121082533 461.5278004303287 1457.369911128496 461.5278004303287L1457.369911128496 461.5278004303287Q1468.9605620871812 461.5278004303287 1476.3955406289715 453.386074878862Q1483.8305191707627 445.24434932739535 1483.8305191707627 433.25792004329156L1483.8305191707627 433.25792004329156Q1483.8305191707627 421.24322087880074 1476.3955406289715 412.9884158057859Q1468.9605620871812 404.7618806131581 1457.369911128496 404.7618806131581L1457.369911128496 404.7618806131581Q1449.8501229455437 404.7618806131581 1443.9417179446532 408.60658434579517Q1438.0333129437622 412.47955795881927 1434.5843875365435 419.00990032822483Q1431.1071922489382 425.51197281724336 1431.1071922489382 433.25792004329156Z " fill="#7d141d" transform="matrix(0.5815573976481782,0,0,0.5815573976481782,0,65.15027618287854)"/></g></svg>